<?xml version="1.0" standalone="no"?>
<!DOCTYPE svg PUBLIC "-//W3C//DTD SVG 20010904//EN"
 "http://www.w3.org/TR/2001/REC-SVG-20010904/DTD/svg10.dtd">
<svg version="1.0" xmlns="http://www.w3.org/2000/svg"
 width="700.000000pt" height="700.000000pt" viewBox="0 0 700.000000 700.000000"
 preserveAspectRatio="xMidYMid meet">
<metadata>
Created by potrace 1.14, written by Peter Selinger 2001-2017
</metadata>
<g transform="translate(0.000000,700.000000) scale(0.100000,-0.100000)"
fill="#000000" stroke="none">
<path d="M1926 6284 c-32 -10 -64 -31 -96 -63 -73 -73 -80 -106 -80 -388 l0
-233 -82 -1 c-92 0 -113 -3 -196 -19 -272 -56 -510 -228 -646 -468 -37 -66
-91 -200 -99 -247 -3 -16 -10 -52 -16 -80 -12 -56 -10 -3254 1 -3293 4 -12 16
-57 28 -98 85 -310 344 -565 671 -661 l94 -28 1960 -2 c2077 -2 2013 -3 2165
42 141 43 304 147 411 263 127 138 199 278 240 467 16 75 17 189 15 1700 -2
1787 3 1648 -63 1813 -127 318 -425 558 -743 598 -25 3 -54 7 -65 9 -11 2 -55
4 -97 4 l-78 1 0 238 c0 263 -6 298 -61 365 -46 56 -106 87 -182 94 -56 5 -72
2 -121 -20 -68 -32 -119 -83 -143 -145 -15 -40 -17 -82 -18 -289 l0 -243
-1225 2 -1225 3 0 245 c-1 224 -3 249 -22 290 -56 125 -195 186 -327 144z
m3524 -1923 c142 -41 249 -142 302 -286 l21 -60 2 -1185 c0 -652 -3 -1210 -8
-1240 -24 -163 -178 -325 -337 -356 -49 -10 -3762 -11 -3835 -2 -66 9 -161 52
-220 101 -50 41 -110 135 -131 205 -16 52 -18 152 -19 1242 0 652 3 1208 8
1235 13 76 64 173 122 230 59 58 160 112 225 121 25 3 46 7 47 8 1 0 851 1
1890 0 1497 0 1897 -3 1933 -13z"/>
<path d="M3469 3759 c-61 -9 -110 -33 -152 -74 -51 -49 -69 -91 -74 -171 -6
-79 11 -132 61 -191 36 -43 123 -84 183 -87 142 -7 269 104 277 241 10 169
-134 306 -295 282z"/>
<path d="M4140 3753 c-124 -32 -191 -116 -196 -248 -3 -70 0 -85 24 -128 88
-162 306 -190 428 -55 61 68 83 154 61 242 -35 139 -179 225 -317 189z"/>
<path d="M4815 3747 c-123 -47 -192 -162 -173 -286 33 -218 305 -303 450 -143
49 55 69 104 70 177 4 148 -111 266 -256 264 -34 0 -75 -6 -91 -12z"/>
<path d="M2034 3052 c-99 -29 -158 -88 -186 -188 -49 -170 98 -344 277 -329
61 6 107 27 159 75 96 89 108 236 27 348 -60 82 -180 123 -277 94z"/>
<path d="M4161 3058 c-209 -37 -293 -280 -152 -440 63 -72 202 -103 292 -65
124 52 190 192 152 322 -37 124 -167 206 -292 183z"/>
<path d="M4863 3059 c-166 -30 -262 -188 -209 -346 44 -134 189 -206 332 -165
53 15 127 80 153 135 57 117 13 271 -96 338 -49 30 -128 47 -180 38z"/>
<path d="M2717 3050 c-33 -10 -92 -53 -125 -89 -36 -41 -55 -115 -49 -187 8
-110 74 -193 179 -225 96 -30 183 -10 257 57 131 117 107 331 -46 421 -35 20
-61 27 -117 29 -39 2 -84 -1 -99 -6z"/>
<path d="M3393 3039 c-135 -67 -192 -227 -128 -355 33 -67 67 -99 145 -135 44
-20 151 -15 203 10 52 25 112 87 133 137 49 118 -1 265 -113 331 -64 37 -179
43 -240 12z"/>
<path d="M2042 2354 c-123 -32 -203 -132 -203 -255 0 -57 2 -65 30 -122 59
-121 217 -176 343 -118 154 70 201 270 96 404 -62 77 -171 115 -266 91z"/>
<path d="M2765 2360 c-90 -14 -164 -71 -204 -156 -48 -100 -13 -244 75 -310
169 -130 414 -24 428 184 12 165 -138 306 -299 282z"/>
<path d="M3463 2359 c-134 -24 -225 -131 -224 -262 1 -224 266 -345 434 -197
108 95 122 248 33 365 -52 67 -159 109 -243 94z"/>
<path d="M4175 2362 c-153 -27 -244 -140 -232 -287 21 -266 380 -330 497 -89
62 127 6 284 -125 352 -27 13 -115 29 -140 24z"/>
</g>
</svg>
